<?xml version="1.0" encoding="utf-8"?>
<!-- Generator: Adobe Illustrator 27.9.0, SVG Export Plug-In . SVG Version: 6.00 Build 0)  -->
<svg version="1.1" id="Layer_1" xmlns="http://www.w3.org/2000/svg" xmlns:xlink="http://www.w3.org/1999/xlink" x="0px" y="0px"
	 viewBox="0 0 156 91" style="enable-background:new 0 0 156 91;" xml:space="preserve">
<style type="text/css">
	.st0{fill:#E40017;}
	.st1{fill:#FFCD00;}
</style>
<g>
	<g>
		<g>
			<path d="M37.5,76.5l-5.1-16.7c0,0,0-0.1,0-0.1c0-0.2,0.1-0.3,0.4-0.3h2.9c0.2,0,0.4,0.1,0.5,0.4l3.3,12.1c0,0.1,0.1,0.1,0.1,0.1
				c0.1,0,0.1,0,0.1-0.1l3.2-12.1c0.1-0.3,0.2-0.4,0.5-0.4h2.8c0.1,0,0.3,0,0.3,0.1c0.1,0.1,0.1,0.2,0,0.3l-5.2,16.7
				c-0.1,0.2-0.2,0.4-0.5,0.4H38C37.8,76.8,37.6,76.7,37.5,76.5L37.5,76.5z"/>
			<path d="M55.7,72.9c0.1-0.1,0.2-0.2,0.3-0.2c0.1,0,0.2,0,0.3,0.1l1.4,1.4c0.1,0.1,0.1,0.2,0.1,0.3c0,0.1,0,0.2-0.1,0.3
				c-0.6,0.7-1.3,1.2-2.1,1.6c-0.9,0.4-1.8,0.6-2.8,0.6c-1.5,0-2.8-0.4-3.8-1.2c-1-0.8-1.7-1.9-2-3.2c-0.2-0.7-0.3-1.5-0.3-2.3
				c0-1,0.1-1.8,0.3-2.5c0.3-1.2,1-2.2,2-3s2.2-1.1,3.6-1.1c1.6,0,2.9,0.5,3.9,1.5c1,1,1.6,2.3,1.9,4.1c0.1,0.6,0.1,1.2,0.1,1.8
				c0,0.3-0.1,0.4-0.4,0.4h-7.7c-0.1,0-0.1,0.1-0.1,0.1c0.1,0.4,0.1,0.6,0.2,0.8c0.2,0.5,0.5,0.9,1,1.2c0.5,0.3,1.1,0.4,1.8,0.4
				C54.2,74,55.1,73.6,55.7,72.9L55.7,72.9z M51.1,67.2c-0.4,0.3-0.6,0.6-0.7,1.1c-0.1,0.3-0.1,0.5-0.1,0.6c0,0.1,0,0.1,0.1,0.1h4.3
				c0.1,0,0.1,0,0.1-0.1c0-0.2,0-0.4-0.1-0.6c-0.1-0.5-0.4-0.9-0.8-1.2c-0.4-0.3-0.8-0.4-1.4-0.4C51.9,66.8,51.5,66.9,51.1,67.2
				L51.1,67.2z"/>
			<path d="M63.2,76.5c-0.8-0.3-1.5-0.8-1.9-1.3c-0.5-0.6-0.7-1.2-0.7-1.9v-0.1c0-0.3,0.1-0.4,0.4-0.4h2.5c0.3,0,0.4,0.1,0.4,0.1V73
				c0,0.4,0.2,0.7,0.6,0.9c0.4,0.3,0.9,0.4,1.5,0.4c0.6,0,1-0.1,1.4-0.3c0.4-0.2,0.5-0.5,0.5-0.9c0-0.3-0.1-0.5-0.5-0.7
				c-0.3-0.1-0.8-0.3-1.5-0.5c-0.8-0.2-1.4-0.4-1.8-0.6c-1.1-0.4-1.9-0.8-2.6-1.4c-0.6-0.5-1-1.3-1-2.3c0-1.2,0.5-2.2,1.5-2.9
				c1-0.7,2.2-1.1,3.8-1.1c1.1,0,2,0.2,2.8,0.5c0.8,0.3,1.4,0.8,1.9,1.4c0.4,0.6,0.7,1.3,0.7,2.1c0,0.1,0,0.2-0.1,0.2
				c-0.1,0.1-0.2,0.1-0.3,0.1h-2.5c-0.3,0-0.4-0.1-0.4-0.1v-0.1c0-0.4-0.2-0.7-0.6-0.9c-0.4-0.3-0.9-0.4-1.5-0.4
				c-0.6,0-1,0.1-1.4,0.3c-0.4,0.2-0.5,0.5-0.5,0.8s0.2,0.6,0.5,0.8c0.3,0.2,0.9,0.3,1.7,0.5c0.5,0.1,1,0.2,1.4,0.4
				c1.2,0.4,2.1,0.8,2.8,1.4s1,1.4,1,2.4c0,1.2-0.5,2.2-1.5,2.9c-1,0.7-2.3,1-4,1C65,77,64,76.8,63.2,76.5L63.2,76.5z"/>
			<path d="M80.4,66.8h-2.3c-0.1,0-0.1,0.1-0.1,0.1v5.2c0,0.6,0.1,1,0.3,1.2c0.2,0.3,0.6,0.4,1.1,0.4h0.7c0.3,0,0.4,0.1,0.4,0.4v2.2
				c0,0.3-0.1,0.4-0.4,0.5c-0.6,0-1.1,0.1-1.4,0.1c-1.4,0-2.4-0.2-3.1-0.7c-0.7-0.5-1-1.3-1.1-2.6v-6.6c0-0.1-0.1-0.1-0.1-0.1h-1.3
				c-0.3,0-0.4-0.1-0.4-0.4v-2c0-0.3,0.1-0.4,0.4-0.4h1.3c0.1,0,0.1-0.1,0.1-0.1V61c0-0.3,0.1-0.4,0.4-0.4h2.6
				c0.3,0,0.4,0.1,0.4,0.4v2.8c0,0.1,0.1,0.1,0.1,0.1h2.3c0.3,0,0.4,0.1,0.4,0.4v2C80.8,66.6,80.7,66.8,80.4,66.8L80.4,66.8z"/>
			<path d="M91,64.3v2.1c0,0.3-0.1,0.4-0.4,0.4h-2.3c-0.1,0-0.1,0.1-0.1,0.1v9.3c0,0.3-0.1,0.4-0.4,0.4H85c-0.3,0-0.4-0.1-0.4-0.4
				v-9.3c0-0.1-0.1-0.1-0.1-0.1h-1.3c-0.3,0-0.4-0.1-0.4-0.4v-2.1c0-0.3,0.1-0.4,0.4-0.4h1.3c0.1,0,0.1-0.1,0.1-0.1v-0.5
				c0-1,0.2-1.8,0.5-2.4c0.3-0.6,0.8-1,1.5-1.2c0.7-0.2,1.7-0.3,2.9-0.3h0.8c0.3,0,0.4,0.1,0.4,0.4v1.8c0,0.3-0.1,0.4-0.4,0.4h-0.7
				c-0.6,0-1,0.1-1.2,0.4c-0.2,0.2-0.3,0.6-0.3,1.2v0.3c0,0.1,0.1,0.1,0.1,0.1h2.3C90.9,63.9,91,64.1,91,64.3L91,64.3z"/>
			<path d="M94.4,75.9c-1-0.7-1.7-1.7-2.1-3c-0.2-0.8-0.4-1.6-0.4-2.6c0-1,0.1-1.9,0.4-2.7c0.4-1.2,1.1-2.2,2.1-2.9
				c1-0.7,2.2-1.1,3.6-1.1c1.4,0,2.5,0.4,3.5,1.1c1,0.7,1.7,1.7,2,2.9c0.3,0.8,0.4,1.6,0.4,2.6c0,0.9-0.1,1.7-0.3,2.5
				c-0.4,1.3-1.1,2.3-2.1,3.1c-1,0.7-2.2,1.1-3.6,1.1S95.4,76.7,94.4,75.9L94.4,75.9z M99.4,73.5c0.4-0.3,0.7-0.8,0.8-1.4
				c0.1-0.5,0.2-1,0.2-1.8c0-0.7-0.1-1.3-0.2-1.8c-0.2-0.6-0.4-1-0.8-1.3s-0.9-0.5-1.4-0.5c-0.6,0-1,0.2-1.4,0.5s-0.7,0.8-0.8,1.3
				c-0.1,0.5-0.2,1.1-0.2,1.8c0,0.7,0.1,1.3,0.2,1.8c0.2,0.6,0.4,1,0.8,1.4C97,73.8,97.5,74,98,74C98.6,74,99,73.8,99.4,73.5
				L99.4,73.5z"/>
			<path d="M106.2,76.4V59.7c0-0.3,0.1-0.4,0.4-0.4h2.7c0.3,0,0.4,0.1,0.4,0.4v16.7c0,0.3-0.1,0.4-0.4,0.4h-2.7
				C106.3,76.8,106.2,76.7,106.2,76.4z"/>
			<path d="M120.5,59.3h2.7c0.3,0,0.4,0.1,0.4,0.4v16.7c0,0.3-0.1,0.4-0.4,0.4h-2.7c-0.3,0-0.4-0.1-0.4-0.4v-0.7
				c0-0.1,0-0.1-0.1-0.1c0,0-0.1,0-0.1,0.1c-0.7,0.9-1.6,1.4-2.9,1.4c-1.1,0-2.1-0.3-3-1c-0.9-0.7-1.5-1.6-1.8-2.7
				c-0.3-0.8-0.4-1.8-0.4-3s0.2-2.3,0.5-3.1c0.4-1.1,1-1.9,1.8-2.6s1.8-1,3-1c1.2,0,2.2,0.4,2.9,1.2c0,0.1,0.1,0.1,0.1,0.1
				c0,0,0.1-0.1,0.1-0.1v-5.2C120,59.4,120.2,59.3,120.5,59.3L120.5,59.3z M120,70.4c0-1.1-0.2-2-0.5-2.6c-0.4-0.7-1-1-1.7-1
				c-0.8,0-1.4,0.3-1.8,1c-0.4,0.7-0.6,1.5-0.6,2.6c0,1,0.2,1.8,0.5,2.5c0.4,0.7,1,1.1,1.8,1.1c0.7,0,1.3-0.4,1.7-1.1
				C119.8,72.2,120,71.4,120,70.4L120,70.4z"/>
		</g>
		<g>
			<path d="M41,85.5l3.4,0v0.6l-2.6,0v1.7l2.5,0v0.6l-2.5,0l0,2.4H41L41,85.5L41,85.5z"/>
			<path d="M48.5,88.4l0,2.5h-0.8l0-2.5l-2.1-2.9h0.9l1.6,2.2l1.6-2.2h0.9L48.5,88.4L48.5,88.4z"/>
			<path d="M51.9,85.5h0.8l0,4.7l2.6,0v0.7l-3.4,0L51.9,85.5L51.9,85.5z"/>
			<path d="M60.1,90.9l-2.6-2.5l0,2.5h-0.8l0-5.3h0.8l0,2.4l2.5-2.4h1l-2.7,2.6l2.8,2.8L60.1,90.9L60.1,90.9z"/>
			<path d="M62.4,85.5l3.5,0v0.6l-2.7,0v1.7l2.6,0v0.6l-2.6,0v1.8l2.7,0v0.6l-3.5,0L62.4,85.5L62.4,85.5z"/>
			<path d="M68.3,90.8c-0.3-0.1-0.6-0.3-0.9-0.5l0.3-0.6c0.3,0.2,0.5,0.4,0.8,0.5c0.3,0.1,0.6,0.1,0.9,0.1c0.4,0,0.7-0.1,0.9-0.2
				c0.2-0.1,0.3-0.4,0.3-0.6c0-0.2-0.1-0.4-0.3-0.5c-0.2-0.1-0.5-0.2-1-0.3c-0.4-0.1-0.8-0.2-1-0.3s-0.5-0.3-0.6-0.5
				c-0.2-0.2-0.2-0.5-0.2-0.8c0-0.3,0.1-0.6,0.2-0.8c0.2-0.2,0.4-0.4,0.7-0.6c0.3-0.1,0.7-0.2,1.1-0.2c0.4,0,0.7,0.1,1.1,0.2
				c0.3,0.1,0.6,0.3,0.8,0.5l-0.3,0.6c-0.2-0.2-0.5-0.4-0.8-0.5c-0.3-0.1-0.5-0.1-0.8-0.1c-0.4,0-0.7,0.1-0.9,0.2
				c-0.2,0.2-0.3,0.4-0.3,0.7c0,0.2,0.1,0.4,0.3,0.5c0.2,0.1,0.5,0.2,0.9,0.3c0.4,0.1,0.8,0.2,1.1,0.3c0.3,0.1,0.5,0.3,0.7,0.4
				c0.2,0.2,0.2,0.4,0.2,0.7c0,0.3-0.1,0.6-0.2,0.8c-0.2,0.2-0.4,0.4-0.7,0.5c-0.3,0.1-0.7,0.2-1.1,0.2C69,91,68.6,90.9,68.3,90.8
				L68.3,90.8z"/>
			<path d="M76.6,90.9L74,88.4l0,2.5h-0.8l0-5.3H74l0,2.4l2.5-2.4h1l-2.7,2.6l2.8,2.8L76.6,90.9L76.6,90.9z"/>
			<path d="M79.5,90.6c-0.4-0.2-0.7-0.5-0.9-0.9s-0.3-0.9-0.3-1.4c0-0.6,0.1-1,0.3-1.5c0.2-0.4,0.5-0.7,0.9-0.9
				c0.4-0.2,0.8-0.3,1.3-0.3c0.5,0,1,0.1,1.3,0.3c0.4,0.2,0.7,0.5,0.9,0.9c0.2,0.4,0.3,0.9,0.3,1.5c0,0.6-0.1,1-0.3,1.5
				c-0.2,0.4-0.5,0.7-0.9,1c-0.4,0.2-0.8,0.3-1.3,0.3C80.3,91,79.8,90.9,79.5,90.6z M82,89.8c0.3-0.4,0.4-0.9,0.4-1.6
				c0-0.7-0.1-1.2-0.4-1.6c-0.3-0.4-0.7-0.5-1.3-0.5c-0.5,0-0.9,0.2-1.2,0.5c-0.3,0.4-0.4,0.9-0.4,1.5c0,0.7,0.1,1.2,0.4,1.6
				c0.3,0.4,0.7,0.5,1.2,0.5C81.3,90.3,81.7,90.2,82,89.8L82,89.8z"/>
			<path d="M90,85.6l0,5.3h-0.7l0-3.9l-1.6,3h-0.5l-1.6-3l0,3.8h-0.7l0-5.3h0.6l1.9,3.7l1.9-3.7L90,85.6L90,85.6z"/>
			<path d="M97.2,85.6l0,5.3h-0.7l0-3.9l-1.6,3h-0.5l-1.6-3l0,3.8h-0.7l0-5.3h0.6l1.9,3.7l1.9-3.7L97.2,85.6L97.2,85.6z"/>
			<path d="M99.7,90.4c-0.4-0.4-0.6-0.9-0.6-1.6l0-3.2h0.8l0,3.3c0,0.5,0.1,0.9,0.4,1.1c0.2,0.3,0.6,0.4,1,0.4c0.5,0,0.8-0.1,1-0.4
				c0.2-0.3,0.4-0.6,0.4-1.1l0-3.3h0.8l0,3.2c0,0.7-0.2,1.3-0.6,1.6c-0.4,0.4-0.9,0.6-1.6,0.6C100.6,91,100.1,90.8,99.7,90.4
				L99.7,90.4z"/>
			<path d="M109.8,85.6l0,5.3h-0.6l-3-4l0,4h-0.7l0-5.3h0.6l3.1,4l0-4L109.8,85.6L109.8,85.6z"/>
			<path d="M111.6,85.6l3.5,0v0.6l-2.7,0v1.7l2.6,0v0.6l-2.6,0v1.8l2.7,0V91l-3.5,0L111.6,85.6L111.6,85.6z"/>
		</g>
	</g>
	<g>
		<path class="st0" d="M56.8,0v27.3c0,0.7,0,1.8,0.1,2.5C58,40.7,67.2,49.2,78.4,49.2c11.2,0,20.4-8.5,21.5-19.4
			c0.1-0.7,0.1-1.8,0.1-2.5V0H56.8z"/>
		<path class="st1" d="M88.7,38.4c0,0,0.5-15.6,7-27.6c-2.4,1.5-4.2,2-5.4,2.8c-0.7,0.5-1,1-1,1.8c0,1.2,1,1.9,1.2,2.2
			c0.1,0.2-0.1,0.6-0.3,1.4c-0.2-1.7-1.9-2.5-3.1-2c-0.3,0.1-1.5,0.6-1.7,0.7S85.1,18,85,18.1c-0.1,0.2-0.1,0.3,0,0.5
			c0.1,0.2,0.6,1.4,0.7,1.7c0.5,1.2,2.3,1.9,3.7,0.8c-0.2,0.5-0.4,0.9-0.6,1.6c-0.9,2.8-1.4,4.9-1.8,5.8s-1.4,1.1-2.1,1.1h-1.6
			c-0.9,0-2.2-0.6-2.6-3.3c-0.3-2.4-0.9-7-1-8.1c1.3,1.4,3.1,1,4.1,0c0.3-0.3,1.3-1.4,1.5-1.5c0.1-0.1,0.2-0.3,0.2-0.5
			c0-0.2-0.1-0.3-0.2-0.5c-0.1-0.1-1.2-1.2-1.5-1.5c-1.1-1.1-3-1.4-4.4,0.2c-0.1-1,0.2-1.2,0.9-1.6c0.8-0.4,2-1.7,1.3-3.6
			c-0.6-1.7-1.8-2.2-3.3-6.1c-1.5,3.9-2.6,4.4-3.3,6.1c-0.7,1.9,0.6,3.2,1.3,3.6c0.7,0.4,1,0.7,0.9,1.6c-1.4-1.7-3.3-1.3-4.4-0.2
			c-0.3,0.3-1.3,1.4-1.5,1.5c-0.1,0.1-0.2,0.3-0.2,0.5c0,0.2,0.1,0.3,0.2,0.5c0.1,0.1,1.2,1.2,1.5,1.5c1,1,2.8,1.4,4.1,0
			c-0.1,1.2-0.7,5.8-1,8.1c-0.3,2.7-1.7,3.3-2.6,3.3h-1.6c-0.7,0-1.7-0.2-2.1-1.1c-0.4-0.8-0.9-2.9-1.8-5.8
			c-0.2-0.6-0.4-1.1-0.6-1.6c1.3,1.1,3.1,0.4,3.7-0.8c0.1-0.3,0.6-1.5,0.7-1.7c0.1-0.2,0.1-0.3,0-0.5c-0.1-0.2-0.2-0.2-0.3-0.3
			c-0.2-0.1-1.4-0.6-1.7-0.7c-1.2-0.5-2.9,0.3-3.1,2c-0.3-0.8-0.4-1.2-0.3-1.4c0.2-0.3,1.2-1,1.2-2.2c0-0.8-0.3-1.4-1-1.8
			c-1.1-0.7-2.9-1.3-5.4-2.8c6.5,11.9,7,27.6,7,27.6H88.7L88.7,38.4z"/>
	</g>
</g>
</svg>
